<svg xmlns="http://www.w3.org/2000/svg" version="1.1" height="144" width="192" viewBox="0 0 192 144" class="diagram" text-anchor="middle" font-family="monospace" font-size="13px" stroke-linecap="round">
<rect width="192" height="144" fill="#0a0a0f"/>
<path d="M 32,40 L 32,48" fill="none" stroke="#39ff14"/>
<path d="M 32,88 L 32,136" fill="none" stroke="#39ff14"/>
<path d="M 80,48 L 80,64" fill="none" stroke="#39ff14"/>
<path d="M 112,96 L 112,136" fill="none" stroke="#39ff14"/>
<path d="M 184,32 L 184,136" fill="none" stroke="#39ff14"/>
<path d="M 64,16 L 80,48" fill="none" stroke="#39ff14"/>
<path d="M 104,64 L 132,120" fill="none" stroke="#39ff14"/>
<path d="M 104,16 L 128,64" fill="none" stroke="#39ff14"/>
<path d="M 140,120 L 152,96" fill="none" stroke="#39ff14"/>
<path d="M 32,40 L 52,40" fill="none" stroke="#39ff14"/>
<path d="M 32,88 L 68,88" fill="none" stroke="#39ff14"/>
<path d="M 12,136 L 32,136" fill="none" stroke="#39ff14"/>
<path d="M 92,136 L 112,136" fill="none" stroke="#39ff14"/>
<path d="M 164,136 L 184,136" fill="none" stroke="#39ff14"/>
<g class="text" fill="#39ff14">
<text x="32" y="20">$$$$$$$</text>
<text x="92" y="20">$$</text>
<text x="168" y="20">$$\</text>
<text x="12" y="36">$$</text>
<text x="60" y="36">$$</text>
<text x="96" y="36">$$$</text>
<text x="160" y="36">$$$</text>
<text x="12" y="52">$$</text>
<text x="60" y="52">$$</text>
<text x="100" y="52">$$$$</text>
<text x="156" y="52">$$$$</text>
<text x="32" y="68">$$$$$$$</text>
<text x="92" y="68">$$</text>
<text x="116" y="68">$$</text>
<text x="152" y="68">$$ $$</text>
<text x="12" y="84">$$</text>
<text x="84" y="84">/ $$</text>
<text x="128" y="84">$$$</text>
<text x="164" y="84">$$</text>
<text x="12" y="100">$$</text>
<text x="92" y="100">$$</text>
<text x="128" y="100">$</text>
<text x="164" y="100">$$</text>
<text x="12" y="116">$$</text>
<text x="92" y="116">$$</text>
<text x="136" y="116">_</text>
<text x="164" y="116">$$</text>
<text x="8" y="132">\</text>
<text x="88" y="132">\</text>
<text x="160" y="132">\</text>
</g>
</svg>
